<svg width="26" height="18" viewBox="0 0 26 18" fill="none" xmlns="http://www.w3.org/2000/svg">
<path d="M22.8465 0.25H2.20148C0.987585 0.25 0 1.23758 0 2.45148V15.2094C0 16.4233 0.987585 17.4109 2.20148 17.4109H22.8465C24.0604 17.4109 25.048 16.4233 25.048 15.2094V2.45148C25.048 1.23758 24.0604 0.25 22.8465 0.25ZM22.5592 1.71765L22.2653 1.96231L13.3974 9.34662C12.8913 9.76803 12.1566 9.76803 11.6505 9.34662L2.78262 1.96231L2.4888 1.71765H22.5592ZM1.46765 2.7772L8.69302 8.79376L1.46765 13.6024V2.7772ZM22.8465 15.9432H2.20148C1.8469 15.9432 1.55033 15.6904 1.48238 15.3556L9.86978 9.77361L10.7114 10.4745C11.2366 10.9117 11.8803 11.1304 12.524 11.1304C13.1677 11.1304 13.8115 10.9117 14.3366 10.4745L15.1783 9.77361L23.5656 15.3556C23.4976 15.6905 23.2011 15.9432 22.8465 15.9432ZM23.5803 13.6024L16.355 8.7938L23.5803 2.7772V13.6024Z" fill="#2389DA"/>
</svg>
